<svg width="200" height="219" viewBox="0 0 200 180" fill="none" xmlns="http://www.w3.org/2000/svg">
<path d="M130.114 0C161.494 0.000105658 186.932 25.4386 186.932 56.8184V75.1855C194.716 79.4217 200 87.6734 200 97.1592V143.75C200 157.557 188.807 168.75 175 168.75H85.7955C71.9884 168.75 60.7955 157.557 60.7955 143.75V97.1592C60.7955 87.9057 65.823 79.8265 73.2955 75.5039V56.8184C73.2955 25.4385 98.734 0 130.114 0ZM130.114 19.8867C109.717 19.8867 93.1822 36.4215 93.1822 56.8184V72.1592H167.045V56.8184C167.045 36.4216 150.511 19.8868 130.114 19.8867Z" fill="#0F3662"/>
<path d="M24.8901 149.909C14.3248 141.891 3.72058 128.414 3.09204 114.834C21.0509 124.47 38.9699 131.865 59.1375 136.041C84.855 141.366 110.292 141.688 136.396 138.701C143.824 137.851 152.202 134.53 159.409 138.115C168.623 142.698 168.798 154.793 161.691 161.424C140.046 181.622 97.6994 177.816 70.3236 170.761C54.248 166.618 38.0426 159.889 24.8901 149.909Z" fill="#1F2DA6"/>
<path d="M28.8181 118.146C20.6795 107.789 13.9273 92.1474 16.8609 78.8709C31.7362 92.6176 47.1574 104.189 65.5956 113.205C89.1076 124.703 113.653 131.297 139.708 134.859C147.122 135.872 156.1 134.733 162.143 139.977C169.869 146.681 166.883 158.411 158.272 163.063C132.046 177.233 92.0365 163.095 67.37 149.517C52.8853 141.543 38.9496 131.038 28.8181 118.146Z" fill="#94A7FF"/>
<path d="M44.4688 83.7463C39.8831 71.5048 38.2489 54.6318 45.1389 42.8362C55.1161 60.2722 66.2845 75.7943 81.1214 89.7617C100.041 107.573 121.458 121.013 145.25 132.003C152.02 135.13 160.947 136.663 165.105 143.421C170.421 152.062 163.958 162.368 154.3 164.291C124.884 170.146 91.0184 145.01 71.6365 124.879C60.2551 113.058 50.1773 98.9854 44.4688 83.7463Z" fill="#BECAFF"/>
</svg>
